# xmcd
#
# Track frame offsets:
#	150
#	25822
#	43299
#	54377
#	89700
#	112122
#	125580
#	139698
#	153615
#	175231
#	199153
#	237938
#	258565
#	281970
#	307136
#	326785
#	340034
#
# Disc length: 4682 seconds
#
# Revision: 1
# Processed by: cddbd v1.5.1PL2 Copyright (c) Steve Scherf et al.
# Submitted via: EasyCDDAExtractor 9.1.3.1
#
DISCID=0e124811
DTITLE=Varios Artistas -  Daylight Again  Live at Los Angeles
DYEAR=1983
DGENRE=Blues
TTITLE0=Turn Your Back On Love
TTITLE1=Chicago
TTITLE2=Just A Song Before I Go
TTITLE3=Wooden Ships
TTITLE4=Dark Star
TTITLE5=You Dont Have To Cry
TTITLE6=Blackbird
TTITLE7=Wasted On The Way
TTITLE8=Delta
TTITLE9=Treetop Flyer
TTITLE10=Suite: Judy Blue Eyes
TTITLE11=Southern Cross
TTITLE12=Long Time Gone
TTITLE13=For What It's Worth
TTITLE14=Love The One You With
TTITLE15=Teach Your Children
TTITLE16=Daylight Again
EXTD=
EXTT0=
EXTT1=
EXTT2=
EXTT3=
EXTT4=
EXTT5=
EXTT6=
EXTT7=
EXTT8=
EXTT9=
EXTT10=
EXTT11=
EXTT12=
EXTT13=
EXTT14=
EXTT15=
EXTT16=
PLAYORDER=
